<svg width="213" height="36" viewBox="0 0 213 36" fill="none" xmlns="http://www.w3.org/2000/svg">
<path d="M53.897 6.876C53.897 7.75067 54.143 8.557 54.635 9.295C55.127 10.033 55.742 10.689 56.48 11.263C57.218 11.837 58.2293 12.5477 59.514 13.395C61.0173 14.379 62.22 15.2537 63.122 16.019C64.024 16.757 64.7893 17.659 65.418 18.725C66.074 19.7637 66.402 20.939 66.402 22.251C66.402 23.6997 66.0057 25.0663 65.213 26.351C64.4203 27.6083 63.2313 28.6333 61.646 29.426C60.0607 30.2187 58.1473 30.615 55.906 30.615C51.0953 30.615 47.6787 28.7017 45.656 24.875L50.289 21.308C51.601 24.014 53.077 26.638 54.717 29.18H54.758C55.5507 29.18 56.2887 28.975 56.972 28.565C57.6553 28.1277 58.202 27.5673 58.612 26.884C59.022 26.2007 59.227 25.4763 59.227 24.711C59.227 23.891 58.981 23.1393 58.489 22.456C58.0243 21.7453 57.4367 21.1303 56.726 20.611C56.0153 20.0643 55.045 19.4083 53.815 18.643C52.339 17.7137 51.15 16.8937 50.248 16.183C49.346 15.4723 48.567 14.6113 47.911 13.6C47.2823 12.5613 46.968 11.3723 46.968 10.033C46.968 8.52966 47.3917 7.163 48.239 5.933C49.1137 4.67567 50.3437 3.69167 51.929 2.981C53.5417 2.27033 55.4277 1.915 57.587 1.915C59.6917 1.915 61.4137 2.25666 62.753 2.94C64.1197 3.596 65.3497 4.539 66.443 5.769L62.138 10.115C60.6893 7.70967 59.227 5.45467 57.751 3.35C56.521 3.35 55.5643 3.69167 54.881 4.375C54.225 5.031 53.897 5.86467 53.897 6.876ZM77.4726 10.935C80.206 10.935 82.4063 11.7413 84.0736 13.354C85.741 14.9667 86.5746 17.2627 86.5746 20.242C86.5746 21.5267 86.3423 22.8523 85.8776 24.219C85.4403 25.5857 84.7843 26.7883 83.9096 27.827C83.035 28.6743 82.01 29.3577 80.8346 29.877C79.6866 30.369 78.4703 30.615 77.1856 30.615C74.4523 30.615 72.252 29.8087 70.5846 28.196C68.9173 26.5833 68.0836 24.2873 68.0836 21.308C68.0836 20.0507 68.316 18.7387 68.7806 17.372C69.2453 16.0053 69.915 14.8027 70.7896 13.764C71.6643 12.9167 72.6756 12.2333 73.8236 11.714C74.999 11.1947 76.2153 10.935 77.4726 10.935ZM73.9876 19.34C73.9876 21.9367 74.4933 23.8773 75.5046 25.162C76.5433 26.4467 78.0603 27.212 80.0556 27.458C80.247 26.638 80.3973 25.7223 80.5066 24.711C80.616 23.6997 80.6706 22.866 80.6706 22.21C80.6706 19.586 80.1513 17.6453 79.1126 16.388C78.1013 15.1033 76.6116 14.338 74.6436 14.092C74.4523 14.9393 74.2883 15.8687 74.1516 16.88C74.0423 17.8913 73.9876 18.7113 73.9876 19.34ZM92.9127 3.596C93.0767 4.85333 93.432 6.31567 93.9787 7.983C94.5527 9.623 95.072 10.812 95.5367 11.55H99.1447V13.272L95.5777 13.149L95.4957 28.688L98.6527 28.811V30H88.1977V28.811L89.7147 28.688L89.6327 13.067H87.3367V11.55H89.5097C89.291 10.812 89.086 9.92367 88.8947 8.885C88.7307 7.84633 88.6487 6.958 88.6487 6.22C88.6487 5.70067 88.6623 5.318 88.6897 5.072C88.9357 4.36133 89.3867 3.719 90.0427 3.145C90.726 2.54366 91.4777 2.079 92.2977 1.751C93.145 1.39567 93.924 1.218 94.6347 1.218C95.8373 1.218 97.04 1.40933 98.2427 1.792C99.4727 2.14733 100.566 2.62567 101.523 3.227L98.1197 8.106C97.491 7.39533 96.6847 6.61633 95.7007 5.769C94.7167 4.92167 93.7873 4.19733 92.9127 3.596ZM113.231 26.761L108.229 30.369C106.206 30.369 104.73 29.877 103.801 28.893C102.899 27.8817 102.448 26.269 102.448 24.055V13.149H99.701V11.837C100.849 11.2083 102.093 10.32 103.432 9.172C104.799 7.99667 106.042 6.76667 107.163 5.482L108.516 5.892L108.311 11.55H113.108V13.272L108.229 13.19V22.62C108.229 23.932 108.475 24.8887 108.967 25.49C109.486 26.0913 110.17 26.392 111.017 26.392L112.534 25.531L113.231 26.761ZM140.164 4.006V28.524L142.173 28.565V30H131.349V28.565L133.358 28.524V17.126H124.174V28.524L126.183 28.565V30H115.359V28.565L117.368 28.524V4.006L115.359 3.965V2.53H126.183V3.965L124.174 4.006V15.609H133.358V4.006L131.349 3.965V2.53H142.173V3.965L140.164 4.006ZM152.025 10.935C154.759 10.935 156.959 11.7413 158.626 13.354C160.294 14.9667 161.127 17.2627 161.127 20.242C161.127 21.5267 160.895 22.8523 160.43 24.219C159.993 25.5857 159.337 26.7883 158.462 27.827C157.588 28.6743 156.563 29.3577 155.387 29.877C154.239 30.369 153.023 30.615 151.738 30.615C149.005 30.615 146.805 29.8087 145.137 28.196C143.47 26.5833 142.636 24.2873 142.636 21.308C142.636 20.0507 142.869 18.7387 143.333 17.372C143.798 16.0053 144.468 14.8027 145.342 13.764C146.217 12.9167 147.228 12.2333 148.376 11.714C149.552 11.1947 150.768 10.935 152.025 10.935ZM148.54 19.34C148.54 21.9367 149.046 23.8773 150.057 25.162C151.096 26.4467 152.613 27.212 154.608 27.458C154.8 26.638 154.95 25.7223 155.059 24.711C155.169 23.6997 155.223 22.866 155.223 22.21C155.223 19.586 154.704 17.6453 153.665 16.388C152.654 15.1033 151.164 14.338 149.196 14.092C149.005 14.9393 148.841 15.8687 148.704 16.88C148.595 17.8913 148.54 18.7113 148.54 19.34ZM172.125 10.935C174.858 10.935 177.059 11.7413 178.726 13.354C180.393 14.9667 181.227 17.2627 181.227 20.242C181.227 21.5267 180.995 22.8523 180.53 24.219C180.093 25.5857 179.437 26.7883 178.562 27.827C177.687 28.6743 176.662 29.3577 175.487 29.877C174.339 30.369 173.123 30.615 171.838 30.615C169.105 30.615 166.904 29.8087 165.237 28.196C163.57 26.5833 162.736 24.2873 162.736 21.308C162.736 20.0507 162.968 18.7387 163.433 17.372C163.898 16.0053 164.567 14.8027 165.442 13.764C166.317 12.9167 167.328 12.2333 168.476 11.714C169.651 11.1947 170.868 10.935 172.125 10.935ZM168.64 19.34C168.64 21.9367 169.146 23.8773 170.157 25.162C171.196 26.4467 172.713 27.212 174.708 27.458C174.899 26.638 175.05 25.7223 175.159 24.711C175.268 23.6997 175.323 22.866 175.323 22.21C175.323 19.586 174.804 17.6453 173.765 16.388C172.754 15.1033 171.264 14.338 169.296 14.092C169.105 14.9393 168.941 15.8687 168.804 16.88C168.695 17.8913 168.64 18.7113 168.64 19.34ZM203.053 27.13L197.313 30.492C195.591 29.098 194.184 26.9387 193.09 24.014L192.639 22.743L189.974 23.891L189.933 28.688L191.45 28.811V30H182.635V28.811L184.152 28.688L183.947 4.129L182.389 4.457L181.979 3.268L189.564 0.972L190.138 1.956L190.015 17.29L195.468 10.812C197.382 11.3587 198.789 12.3153 199.691 13.682C200.621 15.0487 201.085 16.8663 201.085 19.135L197.354 20.734L197.6 21.226C198.038 22.2647 198.625 23.276 199.363 24.26C200.101 25.244 200.812 25.9957 201.495 26.515L202.602 25.9L203.053 27.13ZM189.974 22.374L195.509 19.75C195.509 19.1487 195.277 18.4927 194.812 17.782C194.375 17.0713 193.842 16.634 193.213 16.47L190.015 19.258L189.974 22.374Z" fill="#191A15"/>
<path d="M204.389 25.08L210.375 23.727V29.549L204.389 30.451V25.08Z" fill="#52BD94"/>
<path d="M18.7863 18.134L13.3954 27.3669L8.00448 18.134H18.7863ZM20.2305 17.3088H6.55444L13.3954 29L20.2305 17.3088Z" fill="#161C28"/>
<path d="M28.1591 6.65038L33.55 15.8833H22.7682L28.1591 6.65038ZM28.1591 5L21.3181 16.6912H35L28.1591 5Z" fill="#161C28"/>
<path d="M0 5L5.7359 15.3409L12.0038 5.25966L0 5Z" fill="#52BD94"/>
<path d="M13.3955 5.90588L19.4121 16.189H7.36731L13.3955 5.90588Z" fill="#52BD94"/>
<path d="M20.9615 18.4341L26.9839 29H14.6526L20.7744 18.4341H20.9615Z" fill="#52BD94"/>
<path d="M22.2653 17.7935L28.1591 28.1978L34.1347 17.7935H22.2653Z" fill="#52BD94"/>
</svg>
