<svg width="88" height="88" viewBox="0 0 88 88" fill="none" xmlns="http://www.w3.org/2000/svg">
<path d="M42.6704 20.4674L47.6703 20.4585L47.6827 27.4585L42.6827 27.4673C42.2015 30.06 41.1859 32.5241 39.7006 34.7028L43.2423 38.2321L38.3013 43.1906L34.7596 39.6613C32.586 41.1543 30.1255 42.1786 27.5346 42.6689L27.5434 47.6689L20.5434 47.6812L20.5346 42.6813C17.942 42.2001 15.4779 41.1845 13.2991 39.6991L9.76982 43.2409L4.81136 38.2999L8.34066 34.7581C6.84763 32.5846 5.82337 30.1241 5.33305 27.5332L0.33306 27.542L0.32072 20.542L5.32071 20.5332C5.80189 17.9405 6.81747 15.4765 8.30282 13.2977L4.76106 9.76839L9.70208 4.80992L13.2438 8.33922C15.4174 6.84619 17.8779 5.82193 20.4688 5.33162L20.46 0.331624L27.46 0.319284L27.4688 5.31928C30.0614 5.80045 32.5255 6.81603 34.7043 8.30139L38.2336 4.75963L43.192 9.70064L39.6627 13.2424C41.1558 15.4159 42.18 17.8764 42.6704 20.4674ZM23.9814 12.5003C20.9314 12.5057 18.0085 13.7224 15.8557 15.8829C13.7028 18.0434 12.4963 20.9706 12.5017 24.0205C12.5071 27.0705 13.7239 29.9935 15.8843 32.1463C18.0448 34.2992 20.972 35.5056 24.022 35.5002C27.072 35.4949 29.9949 34.2781 32.1478 32.1176C34.3006 29.9572 35.5071 27.03 35.5017 23.98C35.4963 20.93 34.2795 18.0071 32.1191 15.8542C29.9586 13.7014 27.0314 12.4949 23.9814 12.5003Z" fill="#13C4A1"/>
<path d="M53.7472 54.7192L57.4454 53.195L59.5793 58.3725L55.8811 59.8967C56.3119 61.9617 56.3082 64.0939 55.8701 66.1574L59.5629 67.6947L57.4108 72.8646L53.718 71.3274C52.5624 73.0922 51.052 74.5972 49.2831 75.7466L50.8073 79.4448L45.6298 81.5787L44.1056 77.8805C42.0406 78.3113 39.9084 78.3075 37.8449 77.8694L36.3076 81.5623L31.1377 79.4101L32.6749 75.7173C30.9101 74.5617 29.4051 73.0514 28.2557 71.2825L24.5575 72.8067L22.4236 67.6292L26.1218 66.105C25.691 64.0399 25.6948 61.9078 26.1329 59.8442L22.44 58.307L24.5922 53.137L28.285 54.6743C29.4406 52.9094 30.9509 51.4044 32.7198 50.2551L31.1956 46.5569L36.3731 44.423L37.8973 48.1212C39.9624 47.6904 42.0945 47.6941 44.1581 48.1322L45.6953 44.4394L50.8653 46.5915L49.328 50.2843C51.0929 51.4399 52.5979 52.9503 53.7472 54.7192ZM37.4958 54.4949C35.2399 55.4247 33.4457 57.2126 32.508 59.4652C31.5703 61.7178 31.5658 64.2506 32.4956 66.5065C33.4254 68.7624 35.2132 70.5566 37.4658 71.4943C39.7184 72.432 42.2513 72.4365 44.5072 71.5067C46.7631 70.5769 48.5572 68.7891 49.4949 66.5365C50.4327 64.2839 50.4371 61.751 49.5074 59.4951C48.5776 57.2392 46.7897 55.4451 44.5371 54.5074C42.2845 53.5696 39.7517 53.5652 37.4958 54.4949Z" fill="#0A0A0A"/>
<path d="M80.1613 47.3312L82.9349 48.4744L81.3345 52.3575L78.5608 51.2144C77.6988 52.541 76.57 53.6738 75.2464 54.5405L76.3993 57.3101L72.5219 58.9242L71.3689 56.1546C69.8213 56.4831 68.2222 56.4859 66.6734 56.1628L65.5302 58.9365L61.6471 57.336L62.7903 54.5624C61.4636 53.7003 60.3308 52.5716 59.4642 51.248L56.6945 52.4009L55.0804 48.5234L57.8501 47.3705C57.5215 45.8228 57.5187 44.2237 57.8418 42.6749L55.0681 41.5318L56.6686 37.6486L59.4422 38.7918C60.3043 37.4651 61.433 36.3324 62.7567 35.4657L61.6037 32.6961L65.4812 31.082L66.6341 33.8516C68.1818 33.5231 69.7809 33.5202 71.3297 33.8434L72.4729 31.0697L76.356 32.6701L75.2128 35.4438C76.5395 36.3058 77.6722 37.4346 78.5389 38.7582L81.3085 37.6053L82.9226 41.4828L80.153 42.6357C80.4816 44.1833 80.4844 45.7824 80.1613 47.3312ZM71.6308 38.6237C69.9389 37.9263 68.0393 37.9297 66.3498 38.633C64.6603 39.3363 63.3195 40.6819 62.6221 42.3738C61.9248 44.0657 61.9281 45.9654 62.6314 47.6548C63.3347 49.3443 64.6803 50.6852 66.3722 51.3825C68.0642 52.0798 69.9638 52.0765 71.6533 51.3732C73.3427 50.6699 74.6836 49.3243 75.3809 47.6324C76.0783 45.9405 76.0749 44.0408 75.3716 42.3514C74.6684 40.6619 73.3228 39.321 71.6308 38.6237Z" fill="#000C14"/>
</svg>
