<svg width="113" height="67" viewBox="0 0 113 67" fill="none" xmlns="http://www.w3.org/2000/svg">
<path fill-rule="evenodd" clip-rule="evenodd" d="M81.4747 63.7399C91.5637 63.9824 101.874 63.4974 111.521 66.9361C112.096 67.1389 112.728 66.8435 112.936 66.2704C113.139 65.6973 112.843 65.0669 112.268 64.8597C102.396 61.3417 91.8512 61.7825 81.5278 61.5356C80.9174 61.518 80.4088 62.0029 80.3955 62.6113C80.3778 63.2197 80.8643 63.7223 81.4747 63.7399Z" fill="#D1FAE5"/>
<path fill-rule="evenodd" clip-rule="evenodd" d="M80.568 49.1401C83.7128 46.256 87.1451 44.0954 91.2939 43.0246C91.8866 42.8721 92.2404 42.2703 92.09 41.6813C91.9352 41.0923 91.3293 40.7383 90.7411 40.8908C86.2295 42.0547 82.4921 44.3833 79.073 47.5173C78.6219 47.9291 78.5909 48.627 79.0067 49.0749C79.418 49.5223 80.1213 49.5519 80.568 49.1401Z" fill="#D1FAE5"/>
<path fill-rule="evenodd" clip-rule="evenodd" d="M71.8194 17.6529C73.2613 12.7264 76.1009 8.87244 80.4532 6.08933C80.9663 5.76089 81.1166 5.07846 80.7849 4.56663C80.4576 4.05479 79.772 3.90577 79.2589 4.23421C74.4422 7.31578 71.293 11.5806 69.6963 17.0353C69.5238 17.619 69.8644 18.2318 70.4482 18.402C71.0365 18.5726 71.6513 18.2366 71.8194 17.6529Z" fill="#D1FAE5"/>
<path fill-rule="evenodd" clip-rule="evenodd" d="M22.1263 10.9669C21.2682 11.9734 20.4986 13.0579 19.844 14.2125C19.552 14.7266 19.039 15.819 18.9593 16.7558C18.8709 17.7539 19.2114 18.596 20.0872 19.0395C21.2505 19.6276 22.1793 19.5663 22.8959 19.2105C23.5859 18.8688 24.1254 18.1974 24.466 17.2972C25.1162 15.5765 25.0189 12.9468 24.6783 11.4462C25.5939 10.5045 26.5979 9.65055 27.6727 8.8914C35.6785 3.23744 47.4217 5.32225 56.458 13.7761C59.6205 16.736 61.142 22.952 61.9337 29.6587C63.1677 40.1013 62.4645 51.7645 62.3672 55.1816C62.3451 56.0254 62.4247 56.5262 62.4689 56.6263C62.6768 57.1182 63.0439 57.2461 63.3004 57.2946C63.672 57.3607 63.9683 57.2902 64.2071 57.1667C64.53 56.9975 64.7954 56.6994 64.9193 56.2396C64.9856 55.9857 65.0033 55.6321 64.9944 55.2552C64.9856 54.9938 64.9325 54.7081 64.9856 54.5207C65.3306 53.3207 65.7463 52.1489 66.1533 50.9688C67.5111 47.0015 69.2671 43.2838 71.2177 39.5705C77.4144 27.7715 83.4076 15.3045 93.5673 6.31505C94.0229 5.91167 94.0672 5.21424 93.6602 4.75928C93.2578 4.30432 92.5589 4.26287 92.0989 4.66669C81.7357 13.8338 75.5788 26.5154 69.2583 38.5481C67.5996 41.7068 66.0781 44.87 64.8131 48.1786C64.9413 42.3258 64.8927 34.2242 63.8179 27.0559C62.8625 20.6807 61.0446 15.0466 57.9706 12.1692C48.0718 2.90812 35.1609 0.899159 26.3945 7.09316C25.4568 7.75621 24.5634 8.4854 23.7318 9.27629C19.1451 1.02129 9.32593 -2.28735 0.647904 1.66095C0.0906 1.91356 -0.152663 2.56779 0.0994504 3.12106C0.355987 3.67433 1.01058 3.91858 1.56788 3.66597C9.38783 0.108272 18.2561 3.28329 22.1263 10.9669ZM22.7676 13.7307C22.4093 14.235 22.0776 14.7579 21.768 15.2984C21.6043 15.5884 21.3212 16.1461 21.2018 16.6919C21.1753 16.8197 21.1709 17.0199 21.1709 17.1125C21.4761 17.2624 21.7149 17.3347 21.9095 17.2372C22.1528 17.1173 22.2766 16.8352 22.3961 16.52C22.6968 15.7291 22.7941 14.6807 22.7676 13.7307Z" fill="#D1FAE5"/>
</svg>
