<svg width="30" height="85" viewBox="0 0 30 85" fill="none" xmlns="http://www.w3.org/2000/svg">
<path fill-rule="evenodd" clip-rule="evenodd" d="M29.4417 15.2987C28.6761 16.0846 27.41 16.1091 26.6138 15.3534L15 4.33059L3.38622 15.3534C2.59001 16.1091 1.32392 16.0846 0.558339 15.2987C-0.207247 14.5127 -0.182423 13.263 0.613788 12.5073L12.9207 0.826678C14.082 -0.275563 15.918 -0.275558 17.0793 0.826678L29.3862 12.5073C30.1824 13.263 30.2072 14.5127 29.4417 15.2987ZM29.4417 32.5725C28.6761 33.3585 27.41 33.383 26.6138 32.6273L15 21.6045L3.38622 32.6273C2.59001 33.383 1.32392 33.3585 0.558339 32.5725C-0.207248 31.7866 -0.182424 30.5369 0.613787 29.7812L12.9207 18.1005C14.082 16.9983 15.918 16.9983 17.0793 18.1005L29.3862 29.7812C30.1824 30.5369 30.2072 31.7866 29.4417 32.5725ZM26.6138 49.9011C27.41 50.6568 28.6761 50.6323 29.4417 49.8464C30.2072 49.0605 30.1824 47.8108 29.3862 47.0551L17.0793 35.3744C15.918 34.2722 14.082 34.2722 12.9207 35.3744L0.613787 47.0551C-0.182425 47.8108 -0.207249 49.0605 0.558338 49.8464C1.32392 50.6323 2.59001 50.6568 3.38622 49.9011L15 38.8783L26.6138 49.9011ZM29.4417 67.1203C28.6761 67.9062 27.41 67.9307 26.6138 67.175L15 56.1522L3.38622 67.175C2.59001 67.9307 1.32392 67.9062 0.558337 67.1203C-0.20725 66.3343 -0.182425 65.0846 0.613786 64.3289L12.9207 52.6483C14.082 51.5461 15.918 51.5461 17.0793 52.6483L29.3862 64.3289C30.1824 65.0846 30.2072 66.3344 29.4417 67.1203ZM26.6138 84.4489C27.41 85.2046 28.6761 85.1801 29.4417 84.3941C30.2072 83.6082 30.1824 82.3585 29.3862 81.6028L17.0793 69.9222C15.918 68.8199 14.082 68.8199 12.9207 69.9222L0.613785 81.6028C-0.182426 82.3585 -0.20725 83.6082 0.558336 84.3941C1.32392 85.1801 2.59001 85.2046 3.38622 84.4489L15 73.4261L26.6138 84.4489Z" fill="#6EE7B7"/>
</svg>
